<svg xmlns="http://www.w3.org/2000/svg" xmlns:xlink="http://www.w3.org/1999/xlink" id="Capa_1" x="0px" y="0px" viewBox="0 0 142.2 37.7" style="enable-background:new 0 0 142.2 37.7;" xml:space="preserve">
<style type="text/css">
	.st0{fill:#111212;}
	.st1{fill:url(#SVGID_1_);}
	.st2{fill:url(#SVGID_2_);}
</style>
<metadata>

                                                                                                    
                                                                                                    
                                                                                                    
                                                                                                    
                                                                                                    
                                                                                                    
                                                                                                    
                                                                                                    
                                                                                                    
                                                                                                    
                                                                                                    
                                                                                                    
                                                                                                    
                                                                                                    
                                                                                                    
                                                                                                    
                                                                                                    
                                                                                                    
                                                                                                    
                                                                                                    
                           

	</metadata>
<g>
	<g>
		<g>
			<path class="st0" d="M48.3,17.4c-0.6-1.2-1.8-2-3.3-2c-2.1,0-3.7,1.7-3.7,3.8c0,2.1,1.6,3.9,3.7,3.9c1.4,0,2.6-0.8,3.3-2h1.8     c-0.7,2.1-2.7,3.6-5.1,3.6c-3,0-5.4-2.5-5.4-5.4c0-3,2.4-5.4,5.4-5.4c2.3,0,4.3,1.5,5.1,3.5H48.3z"></path>
			<path class="st0" d="M52.5,7.6H54v16.9h-1.6V7.6z"></path>
			<path class="st0" d="M56.4,19.3c0-3,2.4-5.4,5.4-5.4s5.4,2.4,5.4,5.4c0,2.9-2.4,5.4-5.4,5.4S56.4,22.2,56.4,19.3z M58.1,19.3     c0,2.1,1.6,3.9,3.7,3.9s3.7-1.8,3.7-3.9c0-2.1-1.6-3.8-3.7-3.8S58.1,17.2,58.1,19.3z"></path>
			<path class="st0" d="M78.6,24.4h-1.6v-1.3c-0.8,0.9-2,1.4-3.4,1.4c-3,0-4.2-1.3-4.2-4.6V14H71V20c0,2.1,0.9,3.1,2.7,3.1     c2.1,0,3.4-1.2,3.4-3.5V14h1.6V24.4z"></path>
			<path class="st0" d="M90.5,22.8c-0.9,1.2-2.3,1.9-3.9,1.9c-3,0-5.4-2.5-5.4-5.4c0-3,2.4-5.4,5.4-5.4c1.6,0,3,0.7,3.9,1.9V7.6h1.6     v16.9h-1.6V22.8z M90.4,19.3c0-2.1-1.8-3.8-3.9-3.8c-2.1,0-3.7,1.7-3.7,3.8c0,2.1,1.6,3.9,3.7,3.9C88.6,23.1,90.4,21.3,90.4,19.3     z"></path>
			<path class="st0" d="M103.1,17.4c-0.6-1.2-1.8-2-3.3-2c-2.1,0-3.7,1.7-3.7,3.8c0,2.1,1.6,3.9,3.7,3.9c1.4,0,2.6-0.8,3.3-2h1.8     c-0.7,2.1-2.7,3.6-5.1,3.6c-3,0-5.4-2.5-5.4-5.4c0-3,2.4-5.4,5.4-5.4c2.3,0,4.3,1.5,5.1,3.5H103.1z"></path>
			<path class="st0" d="M106.6,19.3c0-3,2.4-5.4,5.4-5.4c1.6,0,3,0.7,3.9,1.9V14h1.6v10.4h-1.6v-1.7c-0.9,1.2-2.3,1.9-3.9,1.9     C109,24.7,106.6,22.2,106.6,19.3z M115.8,19.3c0-2.1-1.8-3.8-3.9-3.8c-2.1,0-3.7,1.7-3.7,3.8c0,2.1,1.6,3.9,3.7,3.9     C114,23.1,115.8,21.3,115.8,19.3z"></path>
			<path class="st0" d="M126.2,16.6c-0.1-0.7-0.9-1.2-2.1-1.2c-1.3,0-2.1,0.6-2.1,1.4c0,0.8,0.7,1.2,2.4,1.6     c2.7,0.5,3.7,1.5,3.7,3.2c0,1.8-1.4,3.1-4,3.1c-2.3,0-3.9-1.3-4-3.1h1.4c0.1,0.9,1.2,1.6,2.5,1.6c1.5,0,2.5-0.7,2.5-1.6     c0-1-0.7-1.3-2.5-1.7c-2.5-0.5-3.6-1.4-3.6-3c0-1.6,1.2-2.9,3.6-2.9c2.1,0,3.4,1.1,3.6,2.7H126.2z"></path>
			<path class="st0" d="M129.8,19.3c0-3,2.4-5.4,5.4-5.4c1.6,0,3,0.7,3.9,1.9V14h1.6v10.4h-1.6v-1.7c-0.9,1.2-2.3,1.9-3.9,1.9     C132.2,24.7,129.8,22.2,129.8,19.3z M139,19.3c0-2.1-1.8-3.8-3.9-3.8c-2.1,0-3.7,1.7-3.7,3.8c0,2.1,1.6,3.9,3.7,3.9     C137.2,23.1,139,21.3,139,19.3z"></path>
		</g>
	</g>
	<g>
		<linearGradient id="SVGID_1_" gradientUnits="userSpaceOnUse" x1="6.4111" y1="31.4141" x2="32.3179" y2="6.3962">
			<stop offset="0" style="stop-color:#853C72"></stop>
			<stop offset="1" style="stop-color:#DC238C"></stop>
		</linearGradient>
		<path class="st1" d="M31,5.2c-3.1-2.6-7.2-4.2-11.6-4.2c-9.9,0-18,8.1-18,18c0,9.9,8.1,18,18,18c4.4,0,8.5-1.6,11.6-4.2l1.6-1.5    l-3.8-1.5c-2.5,2.1-5.7,3.3-9.1,3.3c-7.8,0-14.2-6.3-14.2-14.2c0-7.8,6.3-14.2,14.2-14.2c3.5,0,6.7,1.3,9.1,3.3l3.8-1.5v0L31,5.2z    "></path>
		<linearGradient id="SVGID_2_" gradientUnits="userSpaceOnUse" x1="10.7983" y1="27.5203" x2="28.6259" y2="10.3045">
			<stop offset="0" style="stop-color:#853C72"></stop>
			<stop offset="1" style="stop-color:#DC238C"></stop>
		</linearGradient>
		<path class="st2" d="M19.7,31.3c6.8,0,12.4-5.6,12.4-12.4c0-6.8-5.6-12.4-12.4-12.4c-3.4,0-6.5,1.4-8.8,3.6l2.4,2.4    c1.6-1.6,3.9-2.7,6.4-2.7c5,0,9.1,4.1,9.1,9.1c0,5-4.1,9.1-9.1,9.1c-2.5,0-4.8-1-6.4-2.7l-2.4,2.4C13.2,29.9,16.3,31.3,19.7,31.3z    "></path>
	</g>
</g>
</svg>